# xmcd
#
# Track frame offsets:
#	150
#	23950
#	42397
#	62884
#	81160
#	102964
#	129682
#	156493
#	171943
#
# Disc length: 2585 seconds
#
# Revision: 1
# Processed by: cddbd v1.5.2PL0 Copyright (c) Steve Scherf et al.
# Submitted via: audiograbber 1.83.01
#
DISCID=7c0a1709
DTITLE=Dixie Chicks - DCX MMXVI CD1
DYEAR=2017
DGENRE=Country
TTITLE0=The Long Way Around
TTITLE1=Lubbock Or Leave It
TTITLE2=Truth No. 2
TTITLE3=Easy Silence
TTITLE4=Long Time Gone
TTITLE5=Nothing Compares 2 U
TTITLE6=Top Of The World
TTITLE7=Something In The Air
TTITLE8=Goodbye Earl
EXTD=
EXTT0=
EXTT1=
EXTT2=
EXTT3=
EXTT4=
EXTT5=
EXTT6=
EXTT7=
EXTT8=
PLAYORDER=
